# xmcd CD database file
#
# Track frame offsets:
#	150
#	23272
#	44070
#	65775
#
# Disc length: 1183 seconds
#
# Revision: 4
# Processed by: cddbd v1.5PL3 Copyright (c) Steve Scherf et al.
# Submitted via: CDex 1.50beta9
#
DISCID=30049d04
DTITLE=aiko - 初恋
DYEAR=2001
DGENRE=Pop
TTITLE0=初恋
TTITLE1=アスパラ
TTITLE2=脱出
TTITLE3=初恋 (Instrumental Version)
EXTD=YEAR: 2001
EXTT0=
EXTT1=
EXTT2=
EXTT3=
PLAYORDER=
